<svg width="190" height="40" viewBox="0 0 190 40" fill="none" xmlns="http://www.w3.org/2000/svg">
<path d="M24.2307 39.1111H0V0.888889H24.2307V8.99663H9.35881V15.6229H16.9158L19.0941 23.6768H9.35881V31.0572H24.2307V39.1111Z" fill="rgba(0,212,255,1)"/>
<path d="M61.155 10.9899C60.0434 9.93042 59.0663 9.18518 58.2236 8.75421C57.3272 8.28732 56.2873 8.05387 55.104 8.05387C54.2255 8.05387 53.4008 8.33221 52.6299 8.88889C51.8231 9.44557 51.4197 10.1818 51.4197 11.0976C51.4197 12.3906 52.2982 13.4141 54.0552 14.1683C55.8481 14.9405 57.6858 15.6857 59.5683 16.404C61.4687 17.1582 63.1182 18.3524 64.5166 19.9865C65.8971 21.6386 66.5874 24.0628 66.5874 27.2593C66.5874 31.3535 65.3593 34.4961 62.903 36.6869C60.4647 38.8956 57.3541 40 53.5711 40C51.3838 40 49.2682 39.6229 47.2243 38.8687C45.1625 38.1145 43.3517 36.9832 41.7919 35.4747L46.8478 28.2559C48.4614 30.303 50.586 31.3266 53.2215 31.3266C54.2793 31.3266 55.2923 31.0303 56.2604 30.4377C57.2107 29.8631 57.6858 29.0191 57.6858 27.9057C57.6858 26.5948 56.7983 25.5533 55.0234 24.7811C54.2345 24.44 53.3201 24.0539 52.2803 23.6229L50.8818 23.0572L49.4565 22.4646C47.5381 21.6745 45.8976 20.4804 44.535 18.8822C43.1724 17.3019 42.4912 14.9405 42.4912 11.798C42.4912 9.39169 43.0828 7.29068 44.2661 5.49495C45.4135 3.71717 46.9465 2.35241 48.8648 1.40067C50.7294 0.466891 52.7285 0 54.862 0C56.8342 0 58.7705 0.377104 60.6709 1.13131C62.6072 1.92144 64.3015 3.01683 65.7537 4.41751L61.155 10.9899Z" fill="#dfe016"/>
<path d="M75.7849 9.58922H68.443L66.1033 0.888889H91.9476L94.2067 9.58922H85.1437V39.1111H75.7849V9.58922Z" fill="#34ca4f"/>
<path d="M113.65 8.72727C111.696 8.72727 109.894 9.25701 108.245 10.3165C106.577 11.358 105.26 12.7587 104.292 14.5185C103.323 16.2604 102.839 18.092 102.839 20.0135C102.839 21.9349 103.332 23.7666 104.318 25.5084C105.305 27.2862 106.613 28.6958 108.245 29.7374C109.894 30.7969 111.696 31.3266 113.65 31.3266C115.587 31.3266 117.38 30.7969 119.029 29.7374C120.661 28.6958 121.978 27.2862 122.982 25.5084C123.95 23.7486 124.435 21.9169 124.435 20.0135C124.435 18.092 123.95 16.2604 122.982 14.5185C122.014 12.7767 120.705 11.376 119.056 10.3165C117.371 9.25701 115.569 8.72727 113.65 8.72727ZM113.65 0C117.29 0 120.652 0.888889 123.735 2.66667C126.837 4.4624 129.284 6.88664 131.077 9.93939C132.888 13.0281 133.793 16.3861 133.793 20.0135C133.793 23.6588 132.888 27.0079 131.077 30.0606C129.284 33.1313 126.837 35.5556 123.735 37.3333C120.652 39.1111 117.29 40 113.65 40C110.029 40 106.667 39.1111 103.565 37.3333C100.446 35.5376 97.9896 33.1134 96.1967 30.0606C94.3859 27.0079 93.4805 23.6588 93.4805 20.0135C93.4805 16.3861 94.3859 13.0281 96.1967 9.93939C97.9896 6.9046 100.446 4.48036 103.565 2.66667C106.667 0.888889 110.029 0 113.65 0Z" fill="#e01653"/>
<path d="M144.524 19.6902C146.101 19.6902 147.41 19.5017 148.45 19.1246C149.454 18.7834 150.252 18.1818 150.844 17.3199C151.399 16.4938 151.677 15.4254 151.677 14.1145C151.677 12.1392 151.086 10.7924 149.902 10.0741C148.701 9.35578 146.908 8.99663 144.524 8.99663V19.6902ZM135.165 39.0303V0.888889H145.788C148.8 0.888889 151.462 1.28395 153.775 2.07407C156.052 2.84624 157.836 4.11223 159.127 5.87205C160.4 7.63187 161.036 9.90348 161.036 12.6869C161.036 14.734 160.48 16.6914 159.369 18.5589C158.275 20.4085 156.796 21.6835 154.931 22.3838L164.398 39.0842H153.452L144.631 21.9529H144.524V39.0303H135.165Z" fill="#bd34ca"/>
<path d="M190 39.1111H165.769V0.888889H190V8.99663H175.128V15.6229H182.685L184.863 23.6768H175.128V31.0572H190V39.1111Z" fill="#b81f98"/>
</svg>
